<svg id="Layer_1" data-name="Layer 1" xmlns="http://www.w3.org/2000/svg" viewBox="0 0 512 512">
  <defs>
    <style>
      .cls-1 {
        fill: #fff;
      }

      .cls-2 {
        fill: #17ce3a;
      }
    </style>
  </defs>
  <title>Artboard 1</title>
  <path class="cls-1" d="M148.11,371.27a27,27,0,0,0,0,53.94H388.67c-1.6-14.41-1.6-39.53,0-53.94Z"/>
  <path class="cls-2" d="M444.81,351V67.82a20.18,20.18,0,0,0-20.23-20.23H148.11a81,81,0,0,0-80.92,80.92V398.24a81,81,0,0,0,80.92,80.92H424.58a20.18,20.18,0,0,0,20.23-20.23V445.44a20.39,20.39,0,0,0-7.5-15.76c-3.54-13-3.54-50,0-63A20.07,20.07,0,0,0,444.81,351Zm-56.14,74.17H148.11a27,27,0,0,1,0-53.94H388.67C387.07,385.68,387.07,410.8,388.67,425.21Z"/>
  <g>
    <path class="cls-1" d="M157.67,281.67H115.54l49.31-148.51h53.08l49.3,148.51H225.1L192,173.11h-1.16Zm-7.33-58.59h81.51v29.44H150.34Z"/>
    <path class="cls-1" d="M372.67,188.34a27.48,27.48,0,0,0-3.92-12.18,21.89,21.89,0,0,0-9-8.09,29.8,29.8,0,0,0-13.49-2.86q-10.29,0-17.51,5t-11,14.5Q314,194.22,314,207.41q0,13.78,3.78,23.21t10.94,14.21A30.41,30.41,0,0,0,346,249.62,31.37,31.37,0,0,0,359,247.08a22.83,22.83,0,0,0,9.1-7.33,25.44,25.44,0,0,0,4.53-11.31l39.66.22a57.54,57.54,0,0,1-9.2,26.14q-8.06,12.66-22.88,20.78t-35.06,8.12q-20.6,0-36.73-9a63.24,63.24,0,0,1-25.35-26.14q-9.21-17.19-9.21-41.19t9.36-41.26A63.57,63.57,0,0,1,308.78,140q16.17-8.88,36.41-8.88,18.56,0,33.13,6.74a57,57,0,0,1,23.46,19.62q8.88,12.87,10.55,30.85Z"/>
  </g>
</svg>
